<svg id="Layer_1" data-name="Layer 1" xmlns="http://www.w3.org/2000/svg" viewBox="0 0 271.18 253.12"><defs><style>.cls-1{fill:#f9ba48;}.cls-2{fill:#333;}</style></defs><title>email-svgrepo-com (1)</title><g id="mail"><polygon class="cls-1" points="43.47 201.56 240.34 201.56 268.47 51.56 71.59 51.56 43.47 201.56"/></g><g id="mail-run"><rect class="cls-2" x="18.75" y="75" width="60.94" height="9.38"/><rect class="cls-2" x="9.38" y="121.88" width="60.94" height="9.38"/><rect class="cls-2" y="168.75" width="60.94" height="9.38"/><rect class="cls-2" x="89.06" y="23.44" width="159.38" height="9.38"/><rect class="cls-2" x="56.25" y="23.44" width="23.44" height="9.38"/><rect class="cls-2" x="70.31" width="159.38" height="9.38"/><rect class="cls-2" x="37.5" width="23.44" height="9.38"/><rect class="cls-2" x="46.88" y="220.31" width="112.5" height="9.38"/><rect class="cls-2" x="14.06" y="220.31" width="23.44" height="9.38"/><rect class="cls-2" x="32.81" y="243.75" width="107.81" height="9.38"/><rect class="cls-2" y="243.75" width="23.44" height="9.38"/></g><g id="cover-mail"><polygon class="cls-2" points="271.18 55.39 265.76 47.74 156.36 125.23 98.21 71.55 91.85 78.44 124.95 108.99 40.07 198.33 46.87 204.79 131.83 115.35 155.58 137.27 182.26 118.37 236.38 204.06 244.31 199.06 189.92 112.94 271.18 55.39"/><rect class="cls-2" x="86.72" y="64.07" width="9.37" height="19.89" transform="translate(-38.34 70.89) rotate(-45)"/></g></svg>